<svg width="14" height="12" viewBox="0 0 14 12" fill="none" xmlns="http://www.w3.org/2000/svg">
<path fill-rule="evenodd" clip-rule="evenodd" d="M0.335938 5.99844C0.335938 5.41854 0.792607 4.94844 1.35594 4.94844H10.3835L7.44897 2.20531C7.0429 1.80338 7.03024 1.13868 7.42069 0.720674C7.81114 0.302665 8.45684 0.289631 8.86291 0.691564L13.6229 5.24156C13.8229 5.43953 13.9359 5.71282 13.9359 5.99844C13.9359 6.28406 13.8229 6.55735 13.6229 6.75531L8.86291 11.3053C8.45684 11.7072 7.81114 11.6942 7.42069 11.2762C7.03024 10.8582 7.0429 10.1935 7.44897 9.79156L10.3835 7.04844H1.35594C0.792607 7.04844 0.335937 6.57834 0.335938 5.99844Z"/>
</svg>
