<svg width="20" height="20" viewBox="0 0 20 20" fill="none" xmlns="http://www.w3.org/2000/svg">
<path fill-rule="evenodd" clip-rule="evenodd" d="M1.20275 6.21852C1.3217 5.65353 1.65663 5.39842 2.16058 5.3859H11.9705C12.645 5.3859 13.7797 5.34208 14.3228 5.79908C15.2462 6.45798 15.9646 7.62553 16.744 8.38615C17.3778 8.46754 18.8443 8.68508 19.1824 8.98558C19.5721 9.33302 19.5674 10.4521 19.5627 10.9263C20.2873 10.9122 19.9946 12.6666 19.5251 12.7668H18.5156C19.1636 8.90889 13.6639 9.3878 14.4934 12.7668H7.19074C8.04058 9.53179 2.62228 8.77742 3.14345 12.8075C2.73966 12.7668 2.53307 12.7261 2.12928 12.6854C1.35457 12.6072 0.795835 12.6338 0.795835 11.6196C0.723841 9.61004 0.780184 7.73039 1.20275 6.21852ZM5.1311 11.546C4.68662 11.546 4.32665 11.906 4.32665 12.3505C4.32665 12.795 4.68662 13.1549 5.1311 13.1549C5.57558 13.1549 5.93555 12.795 5.93555 12.3505C5.93555 11.9076 5.57558 11.546 5.1311 11.546ZM12.5386 6.08392H13.5465C14.2148 6.08392 15.1069 7.04958 15.6124 8.00114C15.6641 8.09818 16.0663 8.76334 15.7971 8.76334H12.5402V8.66161V6.18565V6.08392H12.5386ZM16.5389 11.546C16.0945 11.546 15.7345 11.906 15.7345 12.3505C15.7345 12.795 16.0945 13.1549 16.5389 13.1549C16.9834 13.1549 17.3434 12.795 17.3434 12.3505C17.3434 11.9076 16.9834 11.546 16.5389 11.546ZM16.5389 10.7134C15.6343 10.7134 14.9019 11.4459 14.9019 12.3505C14.9019 13.2551 15.6343 13.9876 16.5389 13.9876C17.4436 13.9876 18.176 13.2551 18.176 12.3505C18.176 11.4474 17.442 10.7134 16.5389 10.7134ZM5.1311 10.7134C4.22648 10.7134 3.49403 11.4459 3.49403 12.3505C3.49403 13.2551 4.22648 13.9876 5.1311 13.9876C6.03571 13.9876 6.76817 13.2551 6.76817 12.3505C6.76817 11.4474 6.03571 10.7134 5.1311 10.7134Z" fill="url(#paint0_linear_1191_38474)"/>
<defs>
<linearGradient id="paint0_linear_1191_38474" x1="10.3847" y1="14.4655" x2="10.3847" y2="5.8627" gradientUnits="userSpaceOnUse">
<stop stop-color="#A1835D"/>
<stop offset="0.499672" stop-color="#F3E2AF"/>
<stop offset="1" stop-color="#A1835D"/>
</linearGradient>
</defs>
</svg>
