<svg width="86" height="86" viewBox="0 0 86 86" fill="none" xmlns="http://www.w3.org/2000/svg">
<path d="M18.8583 47.3357C22.4802 47.3359 25.4129 50.2684 25.413 53.8904C25.413 57.5124 22.4802 60.4449 18.8583 60.4451C15.2362 60.4451 12.3036 57.5125 12.3036 53.8904C12.3036 50.2746 15.2425 47.3357 18.8583 47.3357ZM64.535 47.3357C68.1571 47.3357 71.0897 50.2683 71.0897 53.8904C71.0897 57.5125 68.1571 60.4451 64.535 60.4451C60.913 60.4451 57.9803 57.5125 57.9803 53.8904C57.9804 50.2746 60.913 47.3357 64.535 47.3357ZM18.8583 50.6697C17.0786 50.6697 15.6366 52.117 15.6366 53.8904C15.6366 55.6701 17.0786 57.1111 18.8583 57.1111C20.6378 57.1109 22.079 55.67 22.079 53.8904C22.079 52.1108 20.6378 50.6699 18.8583 50.6697ZM64.535 50.6697C62.7553 50.6697 61.3144 52.117 61.3143 53.8904C61.3143 55.6701 62.7553 57.1111 64.535 57.1111C66.3147 57.1111 67.7557 55.6701 67.7557 53.8904C67.7557 52.1107 66.3147 50.6697 64.535 50.6697ZM37.1503 26.0046H76.4286C78.4464 26.0548 79.7882 27.0756 80.2645 29.3376C81.9565 35.3911 82.1817 42.9175 81.8934 50.9636C81.8934 55.0243 79.6564 54.9179 76.5546 55.2312C74.9379 55.3941 74.1105 55.5575 72.494 55.7205C74.5808 39.584 52.8853 42.6044 56.288 55.5574H27.0487C30.3699 42.0279 8.34888 40.1103 10.9432 55.5574H6.90125C5.02132 55.1562 3.84954 48.1319 6.75085 48.1882C6.73206 46.2896 6.71337 41.8093 8.27332 40.4177C9.62689 39.2146 15.499 38.3432 18.037 38.0173C21.1577 34.9718 24.0342 30.2972 27.7313 27.6589C29.9058 25.8291 34.4494 26.0046 37.1503 26.0046ZM49.7655 28.8982C49.1194 28.8983 48.4958 29.1029 47.2489 29.5115L46.7928 29.6599C44.3997 30.443 43.2032 30.8352 42.9032 31.2439C42.6024 31.6535 42.6024 32.8707 42.6024 35.3044V36.5027C42.6026 40.7943 45.9766 42.8761 48.0936 43.7605C48.6674 44.0002 48.954 44.1198 49.7655 44.1199C50.5773 44.1199 50.8645 44.0002 51.4384 43.7605C53.5554 42.8769 56.9294 40.7935 56.9296 36.5027V35.3044C56.9296 32.8713 56.9287 31.6534 56.6278 31.2439C56.3274 30.8353 55.1316 30.4428 52.7391 29.6599L52.2831 29.5115C51.0359 29.1028 50.411 28.8982 49.7655 28.8982ZM30.8397 28.7986C28.164 28.7986 24.5924 32.6654 22.5682 36.4753C22.3615 36.8638 20.7508 39.5266 21.828 39.5271H34.869V28.7986H30.8397Z" fill="url(#paint0_linear_1543_12083)"/>
<defs>
<linearGradient id="paint0_linear_1543_12083" x1="43.4993" y1="62.3594" x2="43.4994" y2="27.9134" gradientUnits="userSpaceOnUse">
<stop stop-color="#A1835D"/>
<stop offset="0.499672" stop-color="#F3E2AF"/>
<stop offset="1" stop-color="#A1835D"/>
</linearGradient>
</defs>
</svg>
