<svg width="86" height="86" viewBox="0 0 86 86" fill="none" xmlns="http://www.w3.org/2000/svg">
<g clip-path="url(#clip0_1543_11030)">
<path d="M81 16V70.2861H5V16H81ZM43 62.7119L39.9023 61.8047L40.8096 64.9023L39.9023 68L43 67.0928L46.0977 68L45.1904 64.9023L46.0977 61.8047L43 62.7119ZM32.0488 59.7773L28.9512 58.8701L29.8584 61.9678L28.9512 65.0654L32.0488 64.1582L35.1465 65.0654L34.2393 61.9678L35.1465 58.8701L32.0488 59.7773ZM53.9512 59.7773L50.8535 58.8701L51.7607 61.9678L50.8535 65.0654L53.9512 64.1582L57.0488 65.0654L56.1416 61.9678L57.0488 58.8701L53.9512 59.7773ZM24.0322 51.7607L20.9346 50.8535L21.8418 53.9512L20.9346 57.0488L24.0322 56.1416L27.1289 57.0488L26.2217 53.9512L27.1289 50.8535L24.0322 51.7607ZM61.9678 51.7607L58.8711 50.8535L59.7773 53.9512L58.8711 57.0488L61.9678 56.1416L65.0654 57.0488L64.1582 53.9512L65.0654 50.8535L61.9678 51.7607ZM45.3828 30.7412L43.002 30.71L42.2363 31.8711L42.1592 33.3164L41.4131 32.5225L39.8916 32.793L39.4951 31.9854L36.7109 32.2314L32.835 30.5098L30.6572 30.3848L29.0264 31.9062L29.665 34.2559L26.3721 37.3398L26.6055 39.0273L25.9795 38.7471L25 40.168L26.5986 42.25L29.6387 42.8535L30.2979 43.6406L32.9189 43.0166L33.2412 42.3506L35.7324 41.7305L38.3926 43.4014L38.8428 44.9014L39.7148 45.6084L39.668 46.8008L40.3613 48.1797L38.8389 48.624L38.2734 49.7188L36.7344 51.1494L37.7734 52.1309L40.751 50.4043L42.2021 48.4746L43.0312 47.9199L44.6562 47.6562L44.4131 48.2842L44.3369 48.4053L45.2627 49.5381L48.1436 49.5527L48.2861 50.2139L45.8057 51.6562L48.0264 52.8066L48.0469 53.5693L47.6406 54.4805L48.4023 55L49.6846 54.5215L52.4717 52.6475L54.21 52.7305L54.4697 51.5791L53.5107 51.5137L52.126 52.082L51.0703 50.751L48.7891 49.2607L51.583 49.0566L51.6133 49.0742L52.8779 47.7744L56.3086 46.2188L57.6201 46.0938L57.7969 44.4824L59.1387 43.5879L60.6201 43.5361L60.9766 42.1016L60.334 40.1816L61 39.0029L60.7402 38.3623L58.9424 37.2461L56.6611 37.2637L55.416 35.7109L53.9805 36.3145L52.8379 35.8604L52.0459 36.1377L50.5576 33.4307L49.502 33.3369L48.7891 30.4502L45.9385 30L45.3828 30.7412ZM21.0977 40.8096L18 39.9023L18.9072 43L18 46.0977L21.0977 45.1904L24.1953 46.0977L23.2881 43L24.1953 39.9023L21.0977 40.8096ZM64.9023 40.8096L61.8047 39.9023L62.7119 43L61.8047 46.0977L64.9023 45.1904L68 46.0977L67.0928 43L68 39.9023L64.9023 40.8096ZM24.0322 29.8584L20.9346 28.9512L21.8418 32.0488L20.9346 35.1465L24.0322 34.2393L27.1289 35.1465L26.2217 32.0488L27.1289 28.9512L24.0322 29.8584ZM61.9678 29.8584L58.8711 28.9512L59.7773 32.0488L58.8711 35.1465L61.9678 34.2393L65.0654 35.1465L64.1582 32.0488L65.0654 28.9512L61.9678 29.8584ZM32.0488 21.8418L28.9512 20.9346L29.8584 24.0322L28.9512 27.1289L32.0488 26.2217L35.1465 27.1289L34.2393 24.0322L35.1465 20.9346L32.0488 21.8418ZM53.9512 21.8418L50.8535 20.9346L51.7607 24.0322L50.8535 27.1289L53.9512 26.2217L57.0488 27.1289L56.1416 24.0322L57.0488 20.9346L53.9512 21.8418ZM43 18.9072L39.9023 18L40.8096 21.0977L39.9023 24.1953L43 23.2881L46.0977 24.1953L45.1904 21.0977L46.0977 18L43 18.9072Z" fill="url(#paint0_linear_1543_11030)"/>
</g>
<defs>
<linearGradient id="paint0_linear_1543_11030" x1="43" y1="73.302" x2="43.0002" y2="19.0159" gradientUnits="userSpaceOnUse">
<stop stop-color="#A1835D"/>
<stop offset="0.499672" stop-color="#F3E2AF"/>
<stop offset="1" stop-color="#A1835D"/>
</linearGradient>
<clipPath id="clip0_1543_11030">
<rect x="5" y="16" width="76" height="54.2861" rx="7" fill="white"/>
</clipPath>
</defs>
</svg>
