<svg width="20" height="20" viewBox="0 0 20 20" fill="none" xmlns="http://www.w3.org/2000/svg">
<path d="M17.375 9.625C17.25 9.4375 14.0625 5 10 5C5.9375 5 2.75 9.4375 2.625 9.625C2.5 9.8125 2.5 10.125 2.625 10.375C2.75 10.5625 5.9375 15 10 15C14.0625 15 17.25 10.5625 17.375 10.375C17.5625 10.125 17.5625 9.875 17.375 9.625ZM10 12.5C8.625 12.5 7.5 11.375 7.5 10C7.5 8.625 8.625 7.5 10 7.5C11.375 7.5 12.5 8.625 12.5 10C12.5 11.375 11.375 12.5 10 12.5Z" fill="url(#paint0_linear_1191_38479)"/>
<path d="M1.875 6.25C2.25 6.25 2.5 6 2.5 5.625V2.5H5.625C6 2.5 6.25 2.25 6.25 1.875C6.25 1.5 6 1.25 5.625 1.25H1.875C1.5 1.25 1.25 1.5 1.25 1.875V5.625C1.25 6 1.5 6.25 1.875 6.25Z" fill="url(#paint1_linear_1191_38479)"/>
<path d="M5.625 17.5H2.5V14.375C2.5 14 2.25 13.75 1.875 13.75C1.5 13.75 1.25 14 1.25 14.375V18.125C1.25 18.5 1.5 18.75 1.875 18.75H5.625C6 18.75 6.25 18.5 6.25 18.125C6.25 17.75 6 17.5 5.625 17.5Z" fill="url(#paint2_linear_1191_38479)"/>
<path d="M18.125 13.75C17.75 13.75 17.5 14 17.5 14.375V17.5H14.375C14 17.5 13.75 17.75 13.75 18.125C13.75 18.5 14 18.75 14.375 18.75H18.125C18.5 18.75 18.75 18.5 18.75 18.125V14.375C18.75 14 18.5 13.75 18.125 13.75Z" fill="url(#paint3_linear_1191_38479)"/>
<path d="M18.125 1.25H14.375C14 1.25 13.75 1.5 13.75 1.875C13.75 2.25 14 2.5 14.375 2.5H17.5V5.625C17.5 6 17.75 6.25 18.125 6.25C18.5 6.25 18.75 6 18.75 5.625V1.875C18.75 1.5 18.5 1.25 18.125 1.25Z" fill="url(#paint4_linear_1191_38479)"/>
<defs>
<linearGradient id="paint0_linear_1191_38479" x1="10.0234" y1="15.5556" x2="10.0235" y2="5.55555" gradientUnits="userSpaceOnUse">
<stop stop-color="#A1835D"/>
<stop offset="0.499672" stop-color="#F3E2AF"/>
<stop offset="1" stop-color="#A1835D"/>
</linearGradient>
<linearGradient id="paint1_linear_1191_38479" x1="3.75" y1="6.52778" x2="3.75003" y2="1.52778" gradientUnits="userSpaceOnUse">
<stop stop-color="#A1835D"/>
<stop offset="0.499672" stop-color="#F3E2AF"/>
<stop offset="1" stop-color="#A1835D"/>
</linearGradient>
<linearGradient id="paint2_linear_1191_38479" x1="3.75" y1="19.0278" x2="3.75003" y2="14.0278" gradientUnits="userSpaceOnUse">
<stop stop-color="#A1835D"/>
<stop offset="0.499672" stop-color="#F3E2AF"/>
<stop offset="1" stop-color="#A1835D"/>
</linearGradient>
<linearGradient id="paint3_linear_1191_38479" x1="16.25" y1="19.0278" x2="16.25" y2="14.0278" gradientUnits="userSpaceOnUse">
<stop stop-color="#A1835D"/>
<stop offset="0.499672" stop-color="#F3E2AF"/>
<stop offset="1" stop-color="#A1835D"/>
</linearGradient>
<linearGradient id="paint4_linear_1191_38479" x1="16.25" y1="6.52778" x2="16.25" y2="1.52778" gradientUnits="userSpaceOnUse">
<stop stop-color="#A1835D"/>
<stop offset="0.499672" stop-color="#F3E2AF"/>
<stop offset="1" stop-color="#A1835D"/>
</linearGradient>
</defs>
</svg>
