<svg width="86" height="86" viewBox="0 0 86 86" fill="none" xmlns="http://www.w3.org/2000/svg">
<path d="M24.1188 43.5C24.1321 47.3963 24.6266 51.2765 25.5913 55.0547H40.9813V32.8359H25.3775C24.5565 36.3332 24.1343 39.9101 24.1188 43.5Z" fill="url(#paint0_linear_1543_9812)"/>
<path d="M45.0188 32.8359V55.0547H60.4088C61.4135 51.2813 61.9479 47.4011 62 43.5C61.9922 39.911 61.578 36.3341 60.765 32.8359H45.0188Z" fill="url(#paint1_linear_1543_9812)"/>
<path d="M43 6C35.4843 6 28.1374 8.19934 21.8883 12.3199C15.6393 16.4404 10.7687 22.2971 7.89259 29.1494C5.01646 36.0016 4.26394 43.5416 5.73018 50.8159C7.19641 58.0902 10.8156 64.772 16.13 70.0165C21.4444 75.261 28.2153 78.8325 35.5866 80.2794C42.9579 81.7264 50.5984 80.9838 57.542 78.1455C64.4856 75.3072 70.4204 70.5007 74.5958 64.3339C78.7713 58.167 81 50.9168 81 43.5C81 33.5544 76.9964 24.0161 69.8701 16.9835C62.7437 9.95088 53.0782 6 43 6ZM72.0225 59.2265H63.425C61.7994 64.2487 59.396 68.9924 56.3 73.289C54.0154 74.2716 51.6251 74.995 49.175 75.4453C53.5628 70.7402 56.9398 65.2072 59.1025 59.1797H45.0425V75.9375C44.3538 75.9375 43.6888 75.9375 43 75.9375C42.3113 75.9375 41.6938 75.9375 41.0288 75.9375V59.2265H26.8975C29.0574 65.2624 32.4345 70.8037 36.825 75.5156C34.4254 75.0702 32.0835 74.3627 29.8425 73.4062C26.7356 69.0736 24.3318 64.2896 22.7175 59.2265H13.9775C13.2188 57.8607 12.56 56.443 12.0063 54.9844H21.5063C20.6161 51.2186 20.1541 47.3667 20.1288 43.5C20.1301 39.9158 20.5122 36.3415 21.2688 32.8359H11.555C12.0545 31.3816 12.6576 29.964 13.36 28.5937H22.4088C24.1066 23.0134 26.7397 17.7531 30.1988 13.0312C32.3922 12.1343 34.6776 11.4742 37.015 11.0625C32.2903 16.0665 28.7247 22.0244 26.565 28.5234H41.0288V10.6875C41.6938 10.6875 42.335 10.6875 43 10.6875C43.665 10.6875 44.3775 10.6875 45.0425 10.6875V28.5937H59.5063C57.3505 22.1052 53.7932 16.1557 49.08 11.1562C51.4136 11.5383 53.6989 12.1669 55.8963 13.0312C59.3352 17.719 61.9597 22.9387 63.6625 28.4766H72.6162C73.3186 29.8468 73.9217 31.2644 74.4212 32.7187H64.7788C65.5516 36.2618 65.9417 39.8758 65.9425 43.5C65.9303 47.3894 65.4762 51.2652 64.5888 55.0547H74.0888C73.5011 56.4919 72.8106 57.886 72.0225 59.2265Z" fill="url(#paint2_linear_1543_9812)"/>
<defs>
<linearGradient id="paint0_linear_1543_9812" x1="43" y1="85.1666" x2="43.0004" y2="10.1666" gradientUnits="userSpaceOnUse">
<stop stop-color="#A1835D"/>
<stop offset="0.499672" stop-color="#F3E2AF"/>
<stop offset="1" stop-color="#A1835D"/>
</linearGradient>
<linearGradient id="paint1_linear_1543_9812" x1="43" y1="85.1666" x2="43.0004" y2="10.1666" gradientUnits="userSpaceOnUse">
<stop stop-color="#A1835D"/>
<stop offset="0.499672" stop-color="#F3E2AF"/>
<stop offset="1" stop-color="#A1835D"/>
</linearGradient>
<linearGradient id="paint2_linear_1543_9812" x1="43" y1="85.1666" x2="43.0004" y2="10.1666" gradientUnits="userSpaceOnUse">
<stop stop-color="#A1835D"/>
<stop offset="0.499672" stop-color="#F3E2AF"/>
<stop offset="1" stop-color="#A1835D"/>
</linearGradient>
</defs>
</svg>
