<svg width="32" height="32" viewBox="0 0 32 32" fill="none" xmlns="http://www.w3.org/2000/svg">
<path fill-rule="evenodd" clip-rule="evenodd" d="M28 9C28 8.44772 27.5523 8 27 8H5C4.44772 8 4 8.44772 4 9C4 9.55228 4.44772 10 5 10H27C27.5523 10 28 9.55228 28 9ZM28 16C28 15.4477 27.5523 15 27 15H5C4.44772 15 4 15.4477 4 16C4 16.5523 4.44772 17 5 17H27C27.5523 17 28 16.5523 28 16ZM17 23C17 22.4477 16.5523 22 16 22H5C4.44772 22 4 22.4477 4 23C4 23.5523 4.44772 24 5 24H16C16.5523 24 17 23.5523 17 23Z" fill="url(#paint0_linear_1337_16)"/>
<defs>
<linearGradient id="paint0_linear_1337_16" x1="4" y1="22.4946" x2="29.5456" y2="18.1646" gradientUnits="userSpaceOnUse">
<stop stop-color="#8E5C24"/>
<stop offset="0.466346" stop-color="#F3E2AF"/>
<stop offset="1" stop-color="#8E5C24"/>
</linearGradient>
</defs>
</svg>
