<svg width="186" height="186" viewBox="0 0 186 186" fill="none" xmlns="http://www.w3.org/2000/svg">
<rect x="1" y="1" width="184" height="184" rx="92" fill="url(#paint0_linear_1543_9809)"/>
<rect x="1" y="1" width="184" height="184" rx="92" stroke="url(#paint1_linear_1543_9809)" stroke-width="2"/>
<rect x="17" y="17" width="152" height="152" rx="76" fill="url(#paint2_linear_1543_9809)"/>
<rect x="17" y="17" width="152" height="152" rx="76" stroke="url(#paint3_linear_1543_9809)" stroke-width="2"/>
<rect x="31" y="31" width="124" height="124" rx="62" fill="url(#paint4_linear_1543_9809)"/>
<rect x="31" y="31" width="124" height="124" rx="62" stroke="url(#paint5_linear_1543_9809)" stroke-width="2"/>
<path d="M74.1188 93.5C74.1321 97.3963 74.6266 101.276 75.5913 105.055H90.9813V82.8359H75.3775C74.5565 86.3332 74.1343 89.9101 74.1188 93.5Z" fill="url(#paint6_linear_1543_9809)"/>
<path d="M95.0188 82.8359V105.055H110.409C111.414 101.281 111.948 97.4011 112 93.5C111.992 89.911 111.578 86.3341 110.765 82.8359H95.0188Z" fill="url(#paint7_linear_1543_9809)"/>
<path d="M93 56C85.4843 56 78.1374 58.1993 71.8883 62.3199C65.6393 66.4404 60.7687 72.2971 57.8926 79.1494C55.0165 86.0016 54.2639 93.5416 55.7302 100.816C57.1964 108.09 60.8156 114.772 66.13 120.016C71.4444 125.261 78.2153 128.832 85.5866 130.279C92.9579 131.726 100.598 130.984 107.542 128.145C114.486 125.307 120.42 120.501 124.596 114.334C128.771 108.167 131 100.917 131 93.5C131 83.5544 126.996 74.0161 119.87 66.9835C112.744 59.9509 103.078 56 93 56ZM122.023 109.227H113.425C111.799 114.249 109.396 118.992 106.3 123.289C104.015 124.272 101.625 124.995 99.175 125.445C103.563 120.74 106.94 115.207 109.103 109.18H95.0425V125.937C94.3538 125.937 93.6888 125.937 93 125.937C92.3113 125.937 91.6938 125.937 91.0288 125.937V109.227H76.8975C79.0574 115.262 82.4345 120.804 86.825 125.516C84.4254 125.07 82.0835 124.363 79.8425 123.406C76.7356 119.074 74.3318 114.29 72.7175 109.227H63.9775C63.2188 107.861 62.56 106.443 62.0063 104.984H71.5063C70.6161 101.219 70.1541 97.3667 70.1288 93.5C70.1301 89.9158 70.5122 86.3415 71.2688 82.8359H61.555C62.0545 81.3816 62.6576 79.964 63.36 78.5937H72.4088C74.1066 73.0134 76.7397 67.7531 80.1988 63.0312C82.3922 62.1343 84.6776 61.4742 87.015 61.0625C82.2903 66.0665 78.7247 72.0244 76.565 78.5234H91.0288V60.6875C91.6938 60.6875 92.335 60.6875 93 60.6875C93.665 60.6875 94.3775 60.6875 95.0425 60.6875V78.5937H109.506C107.351 72.1052 103.793 66.1557 99.08 61.1562C101.414 61.5383 103.699 62.1669 105.896 63.0312C109.335 67.719 111.96 72.9387 113.663 78.4766H122.616C123.319 79.8468 123.922 81.2644 124.421 82.7187H114.779C115.552 86.2618 115.942 89.8758 115.943 93.5C115.93 97.3894 115.476 101.265 114.589 105.055H124.089C123.501 106.492 122.811 107.886 122.023 109.227Z" fill="url(#paint8_linear_1543_9809)"/>
<defs>
<linearGradient id="paint0_linear_1543_9809" x1="93" y1="0" x2="93" y2="186" gradientUnits="userSpaceOnUse">
<stop stop-color="#33291C" stop-opacity="0.5"/>
<stop offset="0.565952" stop-color="#33291C" stop-opacity="0"/>
</linearGradient>
<linearGradient id="paint1_linear_1543_9809" x1="93" y1="0" x2="93" y2="186" gradientUnits="userSpaceOnUse">
<stop stop-color="#F3E2AF" stop-opacity="0.3"/>
<stop offset="0.745602" stop-color="#F3E2AF" stop-opacity="0"/>
</linearGradient>
<linearGradient id="paint2_linear_1543_9809" x1="93" y1="16" x2="93" y2="170" gradientUnits="userSpaceOnUse">
<stop stop-color="#33291C" stop-opacity="0.5"/>
<stop offset="0.658009" stop-color="#33291C" stop-opacity="0"/>
</linearGradient>
<linearGradient id="paint3_linear_1543_9809" x1="93" y1="16" x2="93" y2="170" gradientUnits="userSpaceOnUse">
<stop stop-color="#F3E2AF" stop-opacity="0.3"/>
<stop offset="0.82384" stop-color="#F3E2AF" stop-opacity="0"/>
</linearGradient>
<linearGradient id="paint4_linear_1543_9809" x1="93" y1="32" x2="93" y2="154" gradientUnits="userSpaceOnUse">
<stop stop-color="#33291C" stop-opacity="0.5"/>
<stop offset="1" stop-color="#33291C" stop-opacity="0"/>
</linearGradient>
<linearGradient id="paint5_linear_1543_9809" x1="93" y1="32" x2="93" y2="154" gradientUnits="userSpaceOnUse">
<stop stop-color="#F3E2AF" stop-opacity="0.3"/>
<stop offset="0.84964" stop-color="#F3E2AF" stop-opacity="0"/>
</linearGradient>
<linearGradient id="paint6_linear_1543_9809" x1="93" y1="135.167" x2="93.0004" y2="60.1666" gradientUnits="userSpaceOnUse">
<stop stop-color="#A1835D"/>
<stop offset="0.499672" stop-color="#F3E2AF"/>
<stop offset="1" stop-color="#A1835D"/>
</linearGradient>
<linearGradient id="paint7_linear_1543_9809" x1="93" y1="135.167" x2="93.0004" y2="60.1666" gradientUnits="userSpaceOnUse">
<stop stop-color="#A1835D"/>
<stop offset="0.499672" stop-color="#F3E2AF"/>
<stop offset="1" stop-color="#A1835D"/>
</linearGradient>
<linearGradient id="paint8_linear_1543_9809" x1="93" y1="135.167" x2="93.0004" y2="60.1666" gradientUnits="userSpaceOnUse">
<stop stop-color="#A1835D"/>
<stop offset="0.499672" stop-color="#F3E2AF"/>
<stop offset="1" stop-color="#A1835D"/>
</linearGradient>
</defs>
</svg>
