<svg width="186" height="186" viewBox="0 0 186 186" fill="none" xmlns="http://www.w3.org/2000/svg">
<rect x="1" y="1" width="184" height="184" rx="92" fill="url(#paint0_linear_1543_11333)"/>
<rect x="1" y="1" width="184" height="184" rx="92" stroke="url(#paint1_linear_1543_11333)" stroke-width="2"/>
<rect x="17" y="17" width="152" height="152" rx="76" fill="url(#paint2_linear_1543_11333)"/>
<rect x="17" y="17" width="152" height="152" rx="76" stroke="url(#paint3_linear_1543_11333)" stroke-width="2"/>
<rect x="31" y="31" width="124" height="124" rx="62" fill="url(#paint4_linear_1543_11333)"/>
<rect x="31" y="31" width="124" height="124" rx="62" stroke="url(#paint5_linear_1543_11333)" stroke-width="2"/>
<path d="M93.0108 55C94.7214 55 96.4005 55.462 97.8711 56.3359C99.3415 57.2098 100.549 58.4635 101.367 59.9658L132.255 116.858V116.954C133.041 118.404 133.437 120.033 133.403 121.682C133.37 123.33 132.909 124.943 132.064 126.359C131.22 127.776 130.022 128.949 128.588 129.763C127.154 130.577 125.532 131.004 123.883 131.003H62.1065C60.4438 131.014 58.8074 130.587 57.3604 129.769C55.9132 128.95 54.7054 127.766 53.8584 126.335C53.0115 124.904 52.555 123.276 52.5332 121.613C52.5115 119.951 52.9251 118.311 53.7344 116.858L84.6543 59.9658C85.472 58.4635 86.6801 57.2098 88.1504 56.3359C89.6209 55.4621 91.3002 55 93.0108 55ZM83.9903 108.123C83.7186 108.117 83.4467 108.112 83.1612 108.112H82.4737V121.532H83.1612C90.4154 121.532 91.8974 123.208 92.1084 123.515H93.4727C93.7011 123.189 95.2123 121.532 102.409 121.532H103.097V108.112H102.409C102.124 108.112 101.852 108.117 101.58 108.123V107.196H101.276C97.6625 107.196 95.5256 107.731 94.2666 108.319C93.5522 108.17 92.8124 108.162 92.0899 108.306C91.9082 108.342 91.7297 108.39 91.5537 108.444C90.3348 107.809 88.1592 107.196 84.293 107.196H83.9903V108.123ZM93.0264 71.5098C91.765 71.5099 90.5551 72.0105 89.6631 72.9023C88.771 73.7944 88.2696 75.005 88.2696 76.2666V98.1162C88.2696 99.3778 88.771 100.588 89.6631 101.48C90.5551 102.372 91.765 102.873 93.0264 102.873C94.288 102.873 95.4986 102.373 96.3906 101.48C97.2827 100.588 97.7832 99.3778 97.7832 98.1162V76.2666C97.7832 75.005 97.2827 73.7944 96.3906 72.9023C95.4986 72.0103 94.2879 71.5098 93.0264 71.5098Z" fill="black"/>
<path d="M93.0108 55C94.7214 55 96.4005 55.462 97.8711 56.3359C99.3415 57.2098 100.549 58.4635 101.367 59.9658L132.255 116.858V116.954C133.041 118.404 133.437 120.033 133.403 121.682C133.37 123.33 132.909 124.943 132.064 126.359C131.22 127.776 130.022 128.949 128.588 129.763C127.154 130.577 125.532 131.004 123.883 131.003H62.1065C60.4438 131.014 58.8074 130.587 57.3604 129.769C55.9132 128.95 54.7054 127.766 53.8584 126.335C53.0115 124.904 52.555 123.276 52.5332 121.613C52.5115 119.951 52.9251 118.311 53.7344 116.858L84.6543 59.9658C85.472 58.4635 86.6801 57.2098 88.1504 56.3359C89.6209 55.4621 91.3002 55 93.0108 55ZM83.9903 108.123C83.7186 108.117 83.4467 108.112 83.1612 108.112H82.4737V121.532H83.1612C90.4154 121.532 91.8974 123.208 92.1084 123.515H93.4727C93.7011 123.189 95.2123 121.532 102.409 121.532H103.097V108.112H102.409C102.124 108.112 101.852 108.117 101.58 108.123V107.196H101.276C97.6625 107.196 95.5256 107.731 94.2666 108.319C93.5522 108.17 92.8124 108.162 92.0899 108.306C91.9082 108.342 91.7297 108.39 91.5537 108.444C90.3348 107.809 88.1592 107.196 84.293 107.196H83.9903V108.123ZM93.0264 71.5098C91.765 71.5099 90.5551 72.0105 89.6631 72.9023C88.771 73.7944 88.2696 75.005 88.2696 76.2666V98.1162C88.2696 99.3778 88.771 100.588 89.6631 101.48C90.5551 102.372 91.765 102.873 93.0264 102.873C94.288 102.873 95.4986 102.373 96.3906 101.48C97.2827 100.588 97.7832 99.3778 97.7832 98.1162V76.2666C97.7832 75.005 97.2827 73.7944 96.3906 72.9023C95.4986 72.0103 94.2879 71.5098 93.0264 71.5098Z" fill="url(#paint6_linear_1543_11333)"/>
<defs>
<linearGradient id="paint0_linear_1543_11333" x1="93" y1="0" x2="93" y2="186" gradientUnits="userSpaceOnUse">
<stop stop-color="#33291C" stop-opacity="0.5"/>
<stop offset="0.565952" stop-color="#33291C" stop-opacity="0"/>
</linearGradient>
<linearGradient id="paint1_linear_1543_11333" x1="93" y1="0" x2="93" y2="186" gradientUnits="userSpaceOnUse">
<stop stop-color="#F3E2AF" stop-opacity="0.3"/>
<stop offset="0.745602" stop-color="#F3E2AF" stop-opacity="0"/>
</linearGradient>
<linearGradient id="paint2_linear_1543_11333" x1="93" y1="16" x2="93" y2="170" gradientUnits="userSpaceOnUse">
<stop stop-color="#33291C" stop-opacity="0.5"/>
<stop offset="0.658009" stop-color="#33291C" stop-opacity="0"/>
</linearGradient>
<linearGradient id="paint3_linear_1543_11333" x1="93" y1="16" x2="93" y2="170" gradientUnits="userSpaceOnUse">
<stop stop-color="#F3E2AF" stop-opacity="0.3"/>
<stop offset="0.82384" stop-color="#F3E2AF" stop-opacity="0"/>
</linearGradient>
<linearGradient id="paint4_linear_1543_11333" x1="93" y1="32" x2="93" y2="154" gradientUnits="userSpaceOnUse">
<stop stop-color="#33291C" stop-opacity="0.5"/>
<stop offset="1" stop-color="#33291C" stop-opacity="0"/>
</linearGradient>
<linearGradient id="paint5_linear_1543_11333" x1="93" y1="32" x2="93" y2="154" gradientUnits="userSpaceOnUse">
<stop stop-color="#F3E2AF" stop-opacity="0.3"/>
<stop offset="0.84964" stop-color="#F3E2AF" stop-opacity="0"/>
</linearGradient>
<linearGradient id="paint6_linear_1543_11333" x1="92.9689" y1="135.225" x2="92.9692" y2="59.2224" gradientUnits="userSpaceOnUse">
<stop stop-color="#A1835D"/>
<stop offset="0.499672" stop-color="#F3E2AF"/>
<stop offset="1" stop-color="#A1835D"/>
</linearGradient>
</defs>
</svg>
