<svg width="20" height="20" viewBox="0 0 20 20" fill="none" xmlns="http://www.w3.org/2000/svg">
<path fill-rule="evenodd" clip-rule="evenodd" d="M2.5 8.67993C2.5 6.01524 2.5 4.68291 2.8146 4.23469C3.12919 3.78647 4.38193 3.35765 6.88742 2.50001L7.36477 2.33662C8.67083 1.88955 9.32383 1.66602 10 1.66602C10.6762 1.66602 11.3292 1.88955 12.6353 2.33662L13.1126 2.50001C15.6181 3.35765 16.8708 3.78647 17.1854 4.23469C17.5 4.68291 17.5 6.01524 17.5 8.67993V9.99218C17.5 14.6905 13.9675 16.9706 11.7512 17.9388C11.15 18.2013 10.8494 18.3327 10 18.3327C9.15058 18.3327 8.85 18.2013 8.2488 17.9388C6.03247 16.9706 2.5 14.6905 2.5 9.99218V8.67993ZM11.6667 7.49935C11.6667 8.41985 10.9205 9.16601 10 9.16601C9.0795 9.16601 8.33333 8.41985 8.33333 7.49935C8.33333 6.57887 9.0795 5.83268 10 5.83268C10.9205 5.83268 11.6667 6.57887 11.6667 7.49935ZM10 14.166C13.3333 14.166 13.3333 13.4198 13.3333 12.4993C13.3333 11.5788 11.8409 10.8327 10 10.8327C8.15905 10.8327 6.66667 11.5788 6.66667 12.4993C6.66667 13.4198 6.66667 14.166 10 14.166Z" fill="url(#paint0_linear_1191_38470)"/>
<defs>
<linearGradient id="paint0_linear_1191_38470" x1="10" y1="19.2586" x2="10.0001" y2="2.59194" gradientUnits="userSpaceOnUse">
<stop stop-color="#A1835D"/>
<stop offset="0.499672" stop-color="#F3E2AF"/>
<stop offset="1" stop-color="#A1835D"/>
</linearGradient>
</defs>
</svg>
