<svg width="186" height="186" viewBox="0 0 186 186" fill="none" xmlns="http://www.w3.org/2000/svg">
<rect x="1" y="1" width="184" height="184" rx="92" fill="url(#paint0_linear_1543_11027)"/>
<rect x="1" y="1" width="184" height="184" rx="92" stroke="url(#paint1_linear_1543_11027)" stroke-width="2"/>
<rect x="17" y="17" width="152" height="152" rx="76" fill="url(#paint2_linear_1543_11027)"/>
<rect x="17" y="17" width="152" height="152" rx="76" stroke="url(#paint3_linear_1543_11027)" stroke-width="2"/>
<rect x="31" y="31" width="124" height="124" rx="62" fill="url(#paint4_linear_1543_11027)"/>
<rect x="31" y="31" width="124" height="124" rx="62" stroke="url(#paint5_linear_1543_11027)" stroke-width="2"/>
<g clip-path="url(#clip0_1543_11027)">
<path d="M131 66V120.286H55V66H131ZM93 112.712L89.9023 111.805L90.8096 114.902L89.9023 118L93 117.093L96.0977 118L95.1904 114.902L96.0977 111.805L93 112.712ZM82.0488 109.777L78.9512 108.87L79.8584 111.968L78.9512 115.065L82.0488 114.158L85.1465 115.065L84.2393 111.968L85.1465 108.87L82.0488 109.777ZM103.951 109.777L100.854 108.87L101.761 111.968L100.854 115.065L103.951 114.158L107.049 115.065L106.142 111.968L107.049 108.87L103.951 109.777ZM74.0322 101.761L70.9346 100.854L71.8418 103.951L70.9346 107.049L74.0322 106.142L77.1289 107.049L76.2217 103.951L77.1289 100.854L74.0322 101.761ZM111.968 101.761L108.871 100.854L109.777 103.951L108.871 107.049L111.968 106.142L115.065 107.049L114.158 103.951L115.065 100.854L111.968 101.761ZM95.3828 80.7412L93.002 80.71L92.2363 81.8711L92.1592 83.3164L91.4131 82.5225L89.8916 82.793L89.4951 81.9854L86.7109 82.2314L82.835 80.5098L80.6572 80.3848L79.0264 81.9062L79.665 84.2559L76.3721 87.3398L76.6055 89.0273L75.9795 88.7471L75 90.168L76.5986 92.25L79.6387 92.8535L80.2979 93.6406L82.9189 93.0166L83.2412 92.3506L85.7324 91.7305L88.3926 93.4014L88.8428 94.9014L89.7148 95.6084L89.668 96.8008L90.3613 98.1797L88.8389 98.624L88.2734 99.7188L86.7344 101.149L87.7734 102.131L90.751 100.404L92.2021 98.4746L93.0312 97.9199L94.6562 97.6562L94.4131 98.2842L94.3369 98.4053L95.2627 99.5381L98.1436 99.5527L98.2861 100.214L95.8057 101.656L98.0264 102.807L98.0469 103.569L97.6406 104.48L98.4023 105L99.6846 104.521L102.472 102.647L104.21 102.73L104.47 101.579L103.511 101.514L102.126 102.082L101.07 100.751L98.7891 99.2607L101.583 99.0566L101.613 99.0742L102.878 97.7744L106.309 96.2188L107.62 96.0938L107.797 94.4824L109.139 93.5879L110.62 93.5361L110.977 92.1016L110.334 90.1816L111 89.0029L110.74 88.3623L108.942 87.2461L106.661 87.2637L105.416 85.7109L103.98 86.3145L102.838 85.8604L102.046 86.1377L100.558 83.4307L99.502 83.3369L98.7891 80.4502L95.9385 80L95.3828 80.7412ZM71.0977 90.8096L68 89.9023L68.9072 93L68 96.0977L71.0977 95.1904L74.1953 96.0977L73.2881 93L74.1953 89.9023L71.0977 90.8096ZM114.902 90.8096L111.805 89.9023L112.712 93L111.805 96.0977L114.902 95.1904L118 96.0977L117.093 93L118 89.9023L114.902 90.8096ZM74.0322 79.8584L70.9346 78.9512L71.8418 82.0488L70.9346 85.1465L74.0322 84.2393L77.1289 85.1465L76.2217 82.0488L77.1289 78.9512L74.0322 79.8584ZM111.968 79.8584L108.871 78.9512L109.777 82.0488L108.871 85.1465L111.968 84.2393L115.065 85.1465L114.158 82.0488L115.065 78.9512L111.968 79.8584ZM82.0488 71.8418L78.9512 70.9346L79.8584 74.0322L78.9512 77.1289L82.0488 76.2217L85.1465 77.1289L84.2393 74.0322L85.1465 70.9346L82.0488 71.8418ZM103.951 71.8418L100.854 70.9346L101.761 74.0322L100.854 77.1289L103.951 76.2217L107.049 77.1289L106.142 74.0322L107.049 70.9346L103.951 71.8418ZM93 68.9072L89.9023 68L90.8096 71.0977L89.9023 74.1953L93 73.2881L96.0977 74.1953L95.1904 71.0977L96.0977 68L93 68.9072Z" fill="url(#paint6_linear_1543_11027)"/>
</g>
<defs>
<linearGradient id="paint0_linear_1543_11027" x1="93" y1="0" x2="93" y2="186" gradientUnits="userSpaceOnUse">
<stop stop-color="#33291C" stop-opacity="0.5"/>
<stop offset="0.565952" stop-color="#33291C" stop-opacity="0"/>
</linearGradient>
<linearGradient id="paint1_linear_1543_11027" x1="93" y1="0" x2="93" y2="186" gradientUnits="userSpaceOnUse">
<stop stop-color="#F3E2AF" stop-opacity="0.3"/>
<stop offset="0.745602" stop-color="#F3E2AF" stop-opacity="0"/>
</linearGradient>
<linearGradient id="paint2_linear_1543_11027" x1="93" y1="16" x2="93" y2="170" gradientUnits="userSpaceOnUse">
<stop stop-color="#33291C" stop-opacity="0.5"/>
<stop offset="0.658009" stop-color="#33291C" stop-opacity="0"/>
</linearGradient>
<linearGradient id="paint3_linear_1543_11027" x1="93" y1="16" x2="93" y2="170" gradientUnits="userSpaceOnUse">
<stop stop-color="#F3E2AF" stop-opacity="0.3"/>
<stop offset="0.82384" stop-color="#F3E2AF" stop-opacity="0"/>
</linearGradient>
<linearGradient id="paint4_linear_1543_11027" x1="93" y1="32" x2="93" y2="154" gradientUnits="userSpaceOnUse">
<stop stop-color="#33291C" stop-opacity="0.5"/>
<stop offset="1" stop-color="#33291C" stop-opacity="0"/>
</linearGradient>
<linearGradient id="paint5_linear_1543_11027" x1="93" y1="32" x2="93" y2="154" gradientUnits="userSpaceOnUse">
<stop stop-color="#F3E2AF" stop-opacity="0.3"/>
<stop offset="0.84964" stop-color="#F3E2AF" stop-opacity="0"/>
</linearGradient>
<linearGradient id="paint6_linear_1543_11027" x1="93" y1="123.302" x2="93.0002" y2="69.0159" gradientUnits="userSpaceOnUse">
<stop stop-color="#A1835D"/>
<stop offset="0.499672" stop-color="#F3E2AF"/>
<stop offset="1" stop-color="#A1835D"/>
</linearGradient>
<clipPath id="clip0_1543_11027">
<rect x="55" y="66" width="76" height="54.2861" rx="7" fill="white"/>
</clipPath>
</defs>
</svg>
